<svg width="1324" height="434" viewBox="0 0 1324 434" fill="none" xmlns="http://www.w3.org/2000/svg">
<path d="M473.29 144.331C491.869 144.331 506.93 129.27 506.93 110.691C506.93 92.1119 491.869 77.0508 473.29 77.0508C454.712 77.0508 439.65 92.1119 439.65 110.691C439.65 129.27 454.712 144.331 473.29 144.331Z" fill="black"/>
<path d="M893 106.04C893 105.897 893.056 105.759 893.155 105.658C893.255 105.557 893.389 105.5 893.53 105.5H939.55C939.631 105.5 939.711 105.516 939.786 105.547C939.86 105.579 939.928 105.624 939.985 105.682C940.042 105.74 940.086 105.808 940.116 105.883C940.147 105.959 940.161 106.039 940.16 106.12L940 117.9C939.997 118.016 939.966 118.129 939.91 118.229C939.855 118.328 939.775 118.411 939.68 118.47C920.08 130.77 905.29 146.48 895.49 167.53C894.73 169.163 894.203 170.767 893.91 172.34C893.899 172.459 893.842 172.57 893.75 172.646C893.658 172.723 893.539 172.761 893.42 172.75C893.301 172.739 893.19 172.682 893.114 172.59C893.037 172.498 892.999 172.379 893.01 172.26L893 106.04Z" fill="black"/>
<path d="M1281.66 176.651C1300.23 176.651 1315.29 161.594 1315.29 143.021C1315.29 124.447 1300.23 109.391 1281.66 109.391C1263.09 109.391 1248.03 124.447 1248.03 143.021C1248.03 161.594 1263.09 176.651 1281.66 176.651Z" fill="black"/>
<path d="M0.560281 206.702C2.79028 158.682 40.8103 120.062 88.7703 116.932C115.86 115.162 141.23 125.152 161.07 143.862C161.43 144.202 161.434 144.545 161.08 144.892L129.14 176.982C128.634 177.495 128.11 177.512 127.57 177.032C111.99 163.142 91.4903 159.792 72.9903 169.212C57.0103 177.342 46.8303 194.852 47.6303 213.002C49.4303 253.942 97.0703 272.052 127.08 245.362C127.318 245.151 127.628 245.039 127.945 245.048C128.263 245.058 128.565 245.187 128.79 245.412L160.69 277.322C161.19 277.815 161.18 278.302 160.66 278.782C139.687 297.848 115.617 306.598 88.4503 305.032C37.3603 302.072 -1.79972 257.592 0.560281 206.702Z" fill="black"/>
<path d="M522.761 119.66C522.867 119.294 523.107 119.077 523.481 119.01C581.721 108.51 632.541 151.7 635.081 209.6C635.086 209.719 635.06 209.837 635.005 209.943C634.95 210.048 634.868 210.137 634.767 210.2C634.666 210.263 634.55 210.298 634.432 210.302C634.313 210.305 634.195 210.277 634.091 210.22C619.304 202.067 603.994 201.034 588.161 207.12C588.103 207.142 588.042 207.15 587.981 207.145C587.92 207.139 587.862 207.12 587.81 207.088C587.757 207.056 587.713 207.013 587.681 206.961C587.648 206.909 587.627 206.851 587.621 206.79C585.131 186.74 570.521 169.65 550.431 165.57C523.301 160.06 496.681 178.81 493.871 206.72C493.862 206.814 493.831 206.905 493.781 206.985C493.731 207.065 493.663 207.133 493.583 207.182C493.502 207.232 493.411 207.262 493.317 207.27C493.223 207.278 493.129 207.265 493.041 207.23C477.234 201.097 461.887 202.014 447.001 209.98C446.929 210.019 446.849 210.038 446.768 210.036C446.687 210.034 446.608 210.01 446.539 209.968C446.47 209.925 446.413 209.865 446.375 209.793C446.336 209.722 446.318 209.641 446.321 209.56C446.947 191.1 452.347 174.217 462.521 158.91C462.721 158.61 462.997 158.467 463.351 158.48C468.881 158.63 473.541 159.46 479.661 158.58C501.491 155.42 516.581 140.98 522.761 119.66Z" fill="black"/>
<path d="M1095.09 213.331C1095.09 238.335 1085.16 262.316 1067.48 279.997C1049.8 297.678 1025.81 307.611 1000.81 307.611C975.806 307.611 951.825 297.678 934.144 279.997C916.463 262.316 906.53 238.335 906.53 213.331C906.53 188.326 916.463 164.346 934.144 146.665C951.825 128.984 975.806 119.051 1000.81 119.051C1025.81 119.051 1049.8 128.984 1067.48 146.665C1085.16 164.346 1095.09 188.326 1095.09 213.331ZM1047.95 213.331C1047.95 200.831 1042.98 188.843 1034.15 180.005C1025.31 171.166 1013.32 166.201 1000.82 166.201C988.321 166.201 976.333 171.166 967.494 180.005C958.656 188.843 953.69 200.831 953.69 213.331C953.69 225.83 958.656 237.818 967.494 246.657C976.333 255.495 988.321 260.461 1000.82 260.461C1013.32 260.461 1025.31 255.495 1034.15 246.657C1042.98 237.818 1047.95 225.83 1047.95 213.331Z" fill="black"/>
<path d="M246.951 298.74C191.561 272.74 175.721 200.15 215.191 153.2C243.751 119.22 291.931 109.66 331.191 130.03C367.991 149.12 387.771 190.6 380.131 231.5C380.092 231.718 379.975 231.914 379.802 232.052C379.629 232.19 379.412 232.261 379.191 232.25C363.261 231.59 348.881 237.78 338.451 249.78C326.897 263.073 323.777 279.093 329.091 297.84C329.184 298.153 329.081 298.38 328.781 298.52C302.311 311 273.321 311.12 246.951 298.74ZM334.641 213.68C334.641 201.183 329.676 189.198 320.84 180.361C312.003 171.524 300.018 166.56 287.521 166.56C275.024 166.56 263.038 171.524 254.202 180.361C245.365 189.198 240.401 201.183 240.401 213.68C240.401 219.868 241.619 225.995 243.987 231.712C246.355 237.429 249.826 242.623 254.202 246.999C258.577 251.374 263.772 254.845 269.489 257.213C275.205 259.581 281.333 260.8 287.521 260.8C293.709 260.8 299.836 259.581 305.553 257.213C311.27 254.845 316.464 251.374 320.84 246.999C325.215 242.623 328.686 237.429 331.054 231.712C333.422 225.995 334.641 219.868 334.641 213.68Z" fill="black"/>
<path d="M862.161 213.69C862.161 238.695 852.228 262.675 834.547 280.356C816.866 298.037 792.885 307.97 767.881 307.97C742.876 307.97 718.896 298.037 701.215 280.356C683.534 262.675 673.601 238.695 673.601 213.69C673.601 188.686 683.534 164.705 701.215 147.024C718.896 129.343 742.876 119.41 767.881 119.41C792.885 119.41 816.866 129.343 834.547 147.024C852.228 164.705 862.161 188.686 862.161 213.69ZM815.011 213.68C815.011 201.18 810.045 189.193 801.207 180.354C792.368 171.516 780.38 166.55 767.881 166.55C755.381 166.55 743.393 171.516 734.555 180.354C725.716 189.193 720.751 201.18 720.751 213.68C720.751 226.18 725.716 238.167 734.555 247.006C743.393 255.845 755.381 260.81 767.881 260.81C780.38 260.81 792.368 255.845 801.207 247.006C810.045 238.167 815.011 226.18 815.011 213.68Z" fill="black"/>
<path d="M1159.93 207.751C1178.51 207.751 1193.57 192.69 1193.57 174.111C1193.57 155.532 1178.51 140.471 1159.93 140.471C1141.35 140.471 1126.29 155.532 1126.29 174.111C1126.29 192.69 1141.35 207.751 1159.93 207.751Z" fill="black"/>
<path d="M1235.69 260.942C1268.27 254.482 1284.29 219.582 1267.88 190.552C1267.85 190.504 1267.84 190.45 1267.85 190.395C1267.85 190.341 1267.87 190.288 1267.9 190.245C1267.93 190.201 1267.98 190.168 1268.03 190.15C1268.08 190.132 1268.14 190.129 1268.19 190.142C1285.32 194.128 1300.71 190.785 1314.36 180.112C1314.43 180.054 1314.52 180.015 1314.61 179.997C1314.7 179.979 1314.79 179.983 1314.88 180.009C1314.97 180.034 1315.05 180.08 1315.12 180.143C1315.19 180.206 1315.24 180.285 1315.27 180.372C1329.26 218.452 1319.23 260.322 1288.13 286.492C1287.88 286.702 1287.71 286.996 1287.66 287.319C1287.61 287.643 1287.68 287.974 1287.85 288.252C1326.15 350.472 1282.5 430.362 1210.27 432.222C1190.2 432.735 1171.67 427.318 1154.67 415.972C1154.57 415.902 1154.48 415.813 1154.41 415.709C1154.34 415.604 1154.29 415.487 1154.27 415.364C1154.24 415.241 1154.25 415.115 1154.27 414.993C1154.3 414.87 1154.35 414.754 1154.42 414.652L1180.23 377.522C1180.39 377.301 1180.62 377.149 1180.88 377.098C1181.15 377.048 1181.42 377.103 1181.64 377.252C1207.79 394.872 1244.87 381.522 1253.2 350.502C1257.25 335.462 1253.7 319.952 1243.99 307.732C1243.9 307.616 1243.77 307.528 1243.63 307.475C1243.49 307.422 1243.34 307.407 1243.19 307.432C1186.26 316.632 1134.73 274.822 1132.97 216.762C1132.97 216.675 1132.99 216.59 1133.03 216.515C1133.07 216.439 1133.13 216.375 1133.21 216.33C1133.28 216.285 1133.37 216.259 1133.45 216.256C1133.54 216.253 1133.62 216.272 1133.7 216.312C1148.54 224.272 1163.83 225.155 1179.57 218.962C1179.66 218.929 1179.75 218.917 1179.84 218.925C1179.93 218.933 1180.02 218.962 1180.1 219.009C1180.18 219.056 1180.25 219.12 1180.3 219.197C1180.35 219.274 1180.38 219.361 1180.39 219.452C1183.9 246.382 1208.44 266.342 1235.69 260.942Z" fill="black"/>
<path d="M473.28 285.801C491.854 285.801 506.91 270.744 506.91 252.171C506.91 233.598 491.854 218.541 473.28 218.541C454.707 218.541 439.65 233.598 439.65 252.171C439.65 270.744 454.707 285.801 473.28 285.801Z" fill="black"/>
<path d="M608.04 285.821C626.619 285.821 641.68 270.76 641.68 252.181C641.68 233.602 626.619 218.541 608.04 218.541C589.461 218.541 574.4 233.602 574.4 252.181C574.4 270.76 589.461 285.821 608.04 285.821Z" fill="black"/>
<path d="M375.111 314.7C393.69 314.7 408.751 299.639 408.751 281.06C408.751 262.481 393.69 247.42 375.111 247.42C356.532 247.42 341.471 262.481 341.471 281.06C341.471 299.639 356.532 314.7 375.111 314.7Z" fill="black"/>
<path d="M939.99 306.921C940.048 306.954 940.096 307.001 940.13 307.057C940.163 307.114 940.18 307.177 940.18 307.241L940.27 387.741C940.271 387.84 940.253 387.939 940.215 388.031C940.178 388.123 940.122 388.207 940.051 388.277C939.98 388.348 939.896 388.404 939.803 388.443C939.71 388.481 939.611 388.501 939.51 388.501H893.5C893.368 388.501 893.24 388.448 893.147 388.354C893.053 388.26 893 388.133 893 388.001V252.751C892.998 252.649 893.033 252.55 893.099 252.473C893.166 252.395 893.259 252.346 893.36 252.333C893.461 252.321 893.563 252.346 893.646 252.405C893.73 252.464 893.788 252.551 893.81 252.651C894.19 254.217 894.764 255.827 895.53 257.481C905.19 278.341 920.01 294.821 939.99 306.921Z" fill="black"/>
</svg>
