<svg width="1366" height="1366" viewBox="0 0 1366 1366" fill="none" xmlns="http://www.w3.org/2000/svg">
<path fill-rule="evenodd" clip-rule="evenodd" d="M806.546 1038.44C751.71 1065.94 689.897 1081.4 624.504 1081.4C398.337 1081.4 214.993 896.429 214.993 668.257C214.993 440.085 398.337 255.115 624.504 255.115C850.671 255.115 1034.01 440.085 1034.01 668.257C1034.01 695.928 1031.32 722.963 1026.18 749.111C1022.06 748.885 1017.9 748.77 1013.72 748.77C892.154 748.77 793.601 845.648 793.601 965.152C793.601 990.875 798.167 1015.55 806.546 1038.44ZM829.255 668.265C829.255 782.351 737.583 874.836 624.5 874.836C511.416 874.836 419.744 782.351 419.744 668.265C419.744 554.179 511.416 461.694 624.5 461.694C737.583 461.694 829.255 554.179 829.255 668.265Z" fill="black"/>
<ellipse cx="1004.75" cy="963.334" rx="146.254" ry="147.551" fill="black"/>
</svg>
